<?xml version="1.0" encoding="UTF-8"?><svg id="Layer_3" xmlns="http://www.w3.org/2000/svg" viewBox="0 0 16.5 16.5"><defs><style>.cls-1{fill:none;stroke:#000;stroke-linecap:round;stroke-linejoin:round;stroke-width:.75px;}</style></defs><path class="cls-1" d="M7.53,12.78h-1.89v-1.78c0-.34-.27-.61-.61-.61h0c-.34,0-.61.27-.61.61v1.78"/><path class="cls-1" d="M5.64,12.78h-3.31c-.5,0-.9-.4-.9-.9v-3.45c0-.5.4-.9.9-.9h5.21"/><path class="cls-1" d="M6.92,7.54v-1.84c0-1.1-.89-1.99-1.99-1.99s-1.99.89-1.99,1.99v1.84"/><path d="M10.94,3.06c-.14-.14-.33-.23-.55-.23s-.41.09-.55.23h0c-.14.14-.23.33-.23.55s.09.41.23.55h0c.14.14.33.23.55.23s.41-.09.55-.22h0c.14-.14.23-.33.23-.55s-.09-.41-.23-.55h0ZM10.39,13.66c.22,0,.41-.09.55-.23h0c.14-.14.23-.34.23-.55s-.09-.41-.23-.55h0c-.14-.14-.33-.23-.55-.23s-.41.09-.55.23h0c-.14.14-.23.33-.23.55s.09.41.23.55h0c.14.14.33.23.55.23ZM14.61,11.32c.19-.05.37-.17.47-.36v-.03c.11-.18.13-.38.08-.56-.05-.19-.18-.36-.36-.47h-.01c-.18-.11-.39-.13-.58-.08-.19.05-.37.18-.47.36-.11.18-.13.39-.08.59.05.19.18.36.36.47h0c.19.11.39.13.59.08ZM11.19,7.46c-.2-.2-.48-.33-.79-.33s-.59.13-.79.33c-.2.2-.33.48-.33.79s.12.59.33.8c.2.2.48.33.79.33s.59-.13.79-.33c.2-.2.33-.49.33-.8s-.12-.59-.33-.79ZM10.74,6.14c.45.07.86.29,1.17.6h0s.1.1.14.16l.77-.45c-.1-.31-.11-.64-.03-.95.11-.41.38-.78.78-1.01h.01c.4-.23.85-.28,1.25-.17.41.11.78.38,1.02.78h0c.23.4.28.86.17,1.27-.11.41-.38.78-.78,1.01l-.11.06h-.01c-.37.18-.78.2-1.15.11-.31-.08-.59-.25-.81-.5l-.77.45c.09.23.14.49.14.76s-.05.52-.14.76l.77.44c.22-.25.5-.41.81-.5.41-.11.87-.06,1.27.17h.03c.39.25.64.61.75,1.02.11.41.06.87-.17,1.26v.03s-.02,0-.02,0c-.23.38-.6.65-1,.76-.41.11-.87.06-1.27-.17h0c-.4-.23-.67-.61-.78-1.02-.08-.31-.08-.64.03-.95l-.77-.45c-.04.05-.09.11-.14.15h0c-.31.31-.71.53-1.17.6v.89c.32.07.61.23.83.45h0c.3.3.49.72.49,1.18s-.19.88-.49,1.18h0c-.3.31-.72.49-1.18.49s-.88-.19-1.18-.49h0c-.3-.31-.49-.72-.49-1.18s.19-.88.49-1.18h0s0,0,0,0c.23-.23.51-.39.83-.45v-.89c-.45-.07-.85-.29-1.16-.6h0c-.39-.39-.63-.92-.63-1.51s.24-1.12.63-1.51h0c.31-.31.71-.53,1.16-.6v-.89c-.32-.07-.61-.23-.83-.45h0c-.3-.31-.49-.72-.49-1.18s.19-.88.49-1.18h0c.3-.3.72-.49,1.18-.49s.88.19,1.18.49h0s0,0,0,0c.3.3.49.72.49,1.18s-.19.88-.49,1.18h0c-.23.23-.51.39-.83.46v.89ZM15.08,5.54h0c-.11-.19-.28-.31-.46-.36-.19-.05-.4-.03-.59.08h0c-.19.11-.31.28-.36.47-.05.19-.03.4.08.59h0c.11.19.28.31.47.36.19.05.4.03.59-.08h0c.18-.11.3-.28.35-.47.05-.19.03-.4-.08-.59Z"/></svg>